# xmcd
#
# Track frame offsets: 
#        150
#        18404
#        32552
#        60933
#        78695
#        98319
#        112362
#        145691
#        166014
#        180134
#        211088
#
# Disc length: 3082 seconds
#
# Revision: 0
# Processed by: cddbd v1.5.1PL2 Copyright (c) Steve Scherf et al.
# Submitted via: ExactAudioCopy v0.95b4
#
DISCID=7a0c080b
DTITLE=Charles, Earl - Greyhound blues
DYEAR=2000
DGENRE=Blues
TTITLE0=So mean to me
TTITLE1=All I want is you
TTITLE2=Greyhoud blues
TTITLE3=Sweet woman's love
TTITLE4=Jumpin' with Ervin
TTITLE5=My love is real
TTITLE6=Everyday I have the blues
TTITLE7=Gulf coast boogie
TTITLE8=Somewhere down the line
TTITLE9=You don't have to go
TTITLE10=You better change your ways
EXTD=
EXTT0=
EXTT1=
EXTT2=
EXTT3=
EXTT4=
EXTT5=
EXTT6=
EXTT7=
EXTT8=
EXTT9=
EXTT10=
PLAYORDER=
